# xmcd
#
# Track frame offsets:
#	150
#	25094
#	43597
#	65527
#	84855
#	112535
#	127178
#	143012
#	157099
#	173432
#	206287
#	221910
#	243753
#	262457
#	282851
#	301363
#	320077
#	333722
#
# Disc length: 4708 seconds
#
# Revision: 1
# Processed by: cddbd v1.4PL0 Copyright (c) Steve Scherf et al.
# Submitted via: audiograbber 1.80
#
DISCID=05126212
DTITLE=Daniel - Ao Vivo Disco 2
DYEAR=1900
DGENRE=
TTITLE0=Te Amo Cada Vez Mais
TTITLE1=Porto Solidão
TTITLE2=Adoro Amar Você
TTITLE3=Pra Falar a Verdade
TTITLE4=Pout - Pourri La Puerta - Corazón Partio
TTITLE5=Paz do Meu Amor
TTITLE6=Tocando em Frente
TTITLE7=Dengo
TTITLE8=Show de Bola
TTITLE9=Pout - Pourri Rosto Molhado - Pode Passar o Rodo - Peão Apaixonado
TTITLE10=Eu me Amarrei
TTITLE11=Quando o Coração se Apaixona
TTITLE12=Um Beijo pra me Enlouquecer
TTITLE13=Só seu Amor não vai Embora
TTITLE14=Por qué Caricia
TTITLE15=Mi Estrella Perdida
TTITLE16=Eres mi Vida
TTITLE17=Flor y Colibri
EXTD=
EXTT0=
EXTT1=
EXTT2=
EXTT3=
EXTT4=
EXTT5=
EXTT6=
EXTT7=
EXTT8=
EXTT9=
EXTT10=
EXTT11=
EXTT12=
EXTT13=
EXTT14=
EXTT15=
EXTT16=
EXTT17=
PLAYORDER=
